<?xml version="1.0" encoding="UTF-8" standalone="no"?>
<svg
   viewBox="0 0 252.89821 252.80718"
   fill="#ffffff"
   version="1.1"
   id="svg1"
   xml:space="preserve"
   width="252.89821"
   height="252.80717"
   xmlns="http://www.w3.org/2000/svg"
   xmlns:svg="http://www.w3.org/2000/svg"><defs
     id="defs1" /><g
     style="opacity:1;fill:#ffffff;fill-rule:nonzero;stroke:none;stroke-width:0;stroke-linecap:butt;stroke-linejoin:miter;stroke-miterlimit:10;stroke-dasharray:none"
     transform="matrix(2.81,0,0,2.81,-7.407784e-4,-0.04786575)"
     id="g8">
	<path
   d="M 38.815,36.058 9.015,13.076 C 8.139,12.409 7.621,11.387 7.603,10.276 7.584,9.166 8.067,8.128 8.927,7.426 l 5.632,-4.595 c 2.327,-1.899 5.5,-2.37 8.278,-1.234 L 56.55,15.412 55.426,18.157 21.713,4.344 C 19.943,3.62 17.918,3.921 16.434,5.132 l -5.632,4.595 c -0.208,0.169 -0.235,0.387 -0.233,0.502 0.002,0.115 0.037,0.332 0.25,0.494 L 40.626,33.71 Z"
   style="opacity:1;fill:#ffffff;fill-rule:nonzero;stroke:none;stroke-width:1;stroke-linecap:butt;stroke-linejoin:miter;stroke-miterlimit:10;stroke-dasharray:none"
   stroke-linecap="round"
   id="path1" />
	<path
   d="M 47.998,14.114 45.9,12.016 48.239,9.676 C 48.36,9.555 48.377,9.415 48.377,9.342 48.377,9.269 48.36,9.129 48.239,9.008 L 44.835,5.604 c -0.121,-0.12 -0.261,-0.139 -0.334,-0.139 -0.073,0 -0.213,0.018 -0.333,0.139 l -4.927,4.927 -2.097,-2.098 4.927,-4.927 c 1.298,-1.3 3.565,-1.299 4.863,0 l 3.404,3.404 c 0.65,0.649 1.007,1.513 1.007,2.432 0,0.919 -0.357,1.783 -1.007,2.432 z"
   style="opacity:1;fill:#ffffff;fill-rule:nonzero;stroke:none;stroke-width:1;stroke-linecap:butt;stroke-linejoin:miter;stroke-miterlimit:10;stroke-dasharray:none"
   stroke-linecap="round"
   id="path2" />
	<path
   d="M 15.797,70.489 1.18,59.056 C 0.409,58.451 -0.02,57.544 0.001,56.565 0.022,55.589 0.489,54.701 1.283,54.13 L 4.895,51.536 C 6.618,50.299 8.89,50.075 10.823,50.947 L 23.61,56.691 22.394,59.397 9.604,53.653 C 8.631,53.215 7.491,53.325 6.625,53.947 L 3.013,56.542 C 3,56.551 2.968,56.574 2.966,56.63 c -0.001,0.057 0.03,0.081 0.043,0.092 l 14.615,11.431 z"
   style="opacity:1;fill:#ffffff;fill-rule:nonzero;stroke:none;stroke-width:1;stroke-linecap:butt;stroke-linejoin:miter;stroke-miterlimit:10;stroke-dasharray:none"
   stroke-linecap="round"
   id="path3" />
	<path
   d="m 16.443,75.945 c -1.094,0 -1.502,-0.408 -1.749,-0.656 v 0 C 13.918,74.513 11.556,72.15 25.213,51.965 33.755,39.34 44.389,26.269 53.66,17 69.346,1.315 80.975,-3.632 87.295,2.687 c 3.511,3.511 3.604,8.607 0.277,15.146 -2.68,5.268 -7.59,11.492 -14.597,18.498 -9.27,9.27 -22.34,19.902 -34.963,28.442 -13.75,9.303 -19.228,11.172 -21.569,11.172 z M 80.586,2.974 c -2.095,0 -4.597,0.762 -7.489,2.286 C 63.465,10.333 50.014,23.648 36.192,41.789 24.408,57.256 17.411,69.789 16.98,73.004 20.194,72.573 32.728,65.577 48.195,53.791 66.337,39.969 79.65,26.518 84.724,16.886 87.603,11.42 87.763,7.348 85.199,4.784 83.991,3.578 82.449,2.974 80.586,2.974 Z"
   style="opacity:1;fill:#ffffff;fill-rule:nonzero;stroke:none;stroke-width:1;stroke-linecap:butt;stroke-linejoin:miter;stroke-miterlimit:10;stroke-dasharray:none"
   stroke-linecap="round"
   id="path4" />
	<path
   d="m 79.768,82.38 c -0.021,0 -0.042,0 -0.064,0 -1.11,-0.019 -2.131,-0.537 -2.803,-1.42 L 53.925,51.168 56.274,49.356 79.257,79.157 c 0.168,0.22 0.384,0.255 0.499,0.257 0.084,-0.005 0.332,-0.025 0.502,-0.233 l 4.595,-5.633 c 1.21,-1.484 1.512,-3.506 0.786,-5.279 L 71.827,34.557 74.572,33.432 88.384,67.145 c 1.138,2.779 0.665,5.951 -1.233,8.278 l -4.595,5.633 C 81.867,81.9 80.853,82.38 79.768,82.38 Z"
   style="opacity:1;fill:#ffffff;fill-rule:nonzero;stroke:none;stroke-width:1;stroke-linecap:butt;stroke-linejoin:miter;stroke-miterlimit:10;stroke-dasharray:none"
   stroke-linecap="round"
   id="path5" />
	<path
   d="m 81.549,52.84 -2.098,-2.097 4.927,-4.927 c 0.121,-0.121 0.138,-0.261 0.138,-0.334 0,-0.073 -0.017,-0.213 -0.138,-0.334 l -3.404,-3.405 c -0.185,-0.184 -0.485,-0.184 -0.668,0 l -2.34,2.34 -2.098,-2.097 2.34,-2.34 c 1.34,-1.341 3.523,-1.341 4.863,0 l 3.404,3.405 c 0.65,0.649 1.007,1.513 1.007,2.432 0,0.918 -0.357,1.782 -1.007,2.432 z"
   style="opacity:1;fill:#ffffff;fill-rule:nonzero;stroke:none;stroke-width:1;stroke-linecap:butt;stroke-linejoin:miter;stroke-miterlimit:10;stroke-dasharray:none"
   stroke-linecap="round"
   id="path6" />
	<path
   d="m 33.348,89.983 c -0.952,0 -1.83,-0.427 -2.42,-1.178 L 19.493,74.185 21.83,72.358 33.263,86.976 c 0.009,0.011 0.034,0.041 0.089,0.041 0.056,-10e-4 0.079,-0.033 0.089,-0.046 l 2.594,-3.613 c 0.62,-0.865 0.734,-2.006 0.295,-2.975 l -5.747,-12.795 2.706,-1.215 5.745,12.791 c 0.873,1.929 0.648,4.2 -0.59,5.924 l -2.595,3.614 c -0.57,0.794 -1.458,1.261 -2.435,1.282 -0.021,-10e-4 -0.043,-10e-4 -0.066,-10e-4 z"
   style="opacity:1;fill:#ffffff;fill-rule:nonzero;stroke:none;stroke-width:1;stroke-linecap:butt;stroke-linejoin:miter;stroke-miterlimit:10;stroke-dasharray:none"
   stroke-linecap="round"
   id="path7" />
	<path
   d="m 80.199,15.243 c -0.38,0 -0.759,-0.145 -1.049,-0.435 -0.579,-0.579 -0.579,-1.519 0,-2.098 0.735,-0.735 1.005,-2.263 0.695,-2.573 -0.314,-0.312 -1.84,-0.04 -2.574,0.695 -0.579,0.578 -1.518,0.579 -2.098,0 -0.58,-0.579 -0.579,-1.519 0,-2.098 1.524,-1.521 4.915,-2.548 6.769,-0.694 1.853,1.854 0.826,5.247 -0.695,6.768 -0.289,0.29 -0.668,0.435 -1.048,0.435 z"
   style="opacity:1;fill:#ffffff;fill-rule:nonzero;stroke:none;stroke-width:1;stroke-linecap:butt;stroke-linejoin:miter;stroke-miterlimit:10;stroke-dasharray:none"
   stroke-linecap="round"
   id="path8" />
</g></svg>
