<?xml version="1.0" encoding="UTF-8" standalone="no"?>
<svg
   viewBox="0 0 252.90218 164.23607"
   fill="#ffffff"
   version="1.1"
   id="svg1"
   xml:space="preserve"
   width="252.90218"
   height="164.23607"
   xmlns="http://www.w3.org/2000/svg"
   xmlns:svg="http://www.w3.org/2000/svg"><defs
     id="defs1" /><g
     style="opacity:1;fill:#ffffff;fill-rule:nonzero;stroke:none;stroke-width:0;stroke-linecap:butt;stroke-linejoin:miter;stroke-miterlimit:10;stroke-dasharray:none"
     transform="matrix(2.81,0,0,2.81,-4.3106986e-4,-44.33056)"
     id="g6">
	<path
   d="m 68.023,74.223 c -7.494,0 -15.448,-1.598 -23.815,-4.797 C 30.569,63.619 16.787,63.625 2.026,69.421 1.261,69.718 0.402,69.345 0.103,68.582 -0.196,67.82 0.179,66.958 0.942,66.659 16.465,60.565 30.98,60.57 45.319,66.675 c 15.927,6.087 30.257,6.106 42.54,0.035 0.733,-0.363 1.624,-0.062 1.988,0.672 0.363,0.735 0.062,1.625 -0.672,1.988 -6.547,3.236 -13.616,4.853 -21.152,4.853 z"
   style="opacity:1;fill:#ffffff;fill-rule:nonzero;stroke:none;stroke-width:1;stroke-linecap:butt;stroke-linejoin:miter;stroke-miterlimit:10;stroke-dasharray:none"
   stroke-linecap="round"
   id="path1" />
	<path
   d="m 87.858,56.82 c -2.818,1.393 -5.749,2.45 -8.777,3.202 L 89.783,42.426 c 0.279,-0.458 0.289,-1.031 0.026,-1.498 -0.263,-0.467 -0.757,-0.756 -1.293,-0.756 H 77.88 V 36.243 26.752 17.26 c 0,-0.819 -0.664,-1.484 -1.483,-1.484 H 54.034 31.674 c -0.819,0 -1.484,0.664 -1.484,1.484 v 9.491 9.491 8.008 H 27.692 L 26.3,41.32 V 22.702 c 0,-0.819 -0.664,-1.483 -1.484,-1.483 H 10.655 c -0.688,0 -1.286,0.473 -1.444,1.143 L 5.008,40.172 H 1.634 c -0.408,0 -0.798,0.168 -1.079,0.465 -0.28,0.297 -0.425,0.696 -0.402,1.103 0.372,6.477 1.42,11.135 3.187,14.143 -0.797,0.282 -1.595,0.571 -2.398,0.886 -0.763,0.299 -1.138,1.161 -0.839,1.923 0.299,0.763 1.159,1.136 1.923,0.839 14.761,-5.797 28.543,-5.802 42.182,0.005 8.367,3.199 16.321,4.797 23.815,4.797 2.725,0 5.387,-0.219 7.987,-0.642 10e-4,0 0.003,10e-4 0.004,10e-4 0.145,0 0.288,-0.027 0.426,-0.069 4.435,-0.763 8.684,-2.142 12.733,-4.143 0.734,-0.363 1.035,-1.253 0.672,-1.988 -0.363,-0.735 -1.254,-1.035 -1.987,-0.672 z M 73.126,40.171 c -0.477,0 -0.925,0.229 -1.203,0.616 l -2.495,3.462 H 68.503 55.518 V 37.725 H 74.913 V 40.17 H 73.126 Z M 33.158,28.235 h 19.393 v 6.524 H 33.158 Z m 41.755,6.524 H 55.518 v -6.524 h 19.395 z m 0,-9.491 H 55.518 V 18.744 H 74.913 Z M 33.158,18.744 h 19.393 v 6.524 H 33.158 Z m 0,18.982 H 52.551 V 44.25 H 33.158 Z M 11.829,24.185 H 23.334 V 40.171 H 8.057 Z m 33.49,32.6 C 32.628,51.381 19.796,50.766 6.252,54.919 4.684,52.674 3.664,48.732 3.221,43.138 H 23.88 l 1.535,3.232 c 0.246,0.518 0.767,0.847 1.34,0.847 h 4.919 22.36 14.468 1.685 c 0.477,0 0.925,-0.229 1.203,-0.616 l 2.495,-3.462 h 11.992 l -10.75,17.677 c -9.125,1.397 -19.104,0.06 -29.808,-4.031 z"
   style="opacity:1;fill:#ffffff;fill-rule:nonzero;stroke:none;stroke-width:1;stroke-linecap:butt;stroke-linejoin:miter;stroke-miterlimit:10;stroke-dasharray:none"
   stroke-linecap="round"
   id="path2" />
	<path
   d="M 20.211,29.738 H 15.85 c -0.819,0 -1.483,-0.664 -1.483,-1.484 0,-0.819 0.664,-1.483 1.483,-1.483 h 4.361 c 0.819,0 1.483,0.664 1.483,1.483 0,0.82 -0.664,1.484 -1.483,1.484 z"
   style="opacity:1;fill:#ffffff;fill-rule:nonzero;stroke:none;stroke-width:1;stroke-linecap:butt;stroke-linejoin:miter;stroke-miterlimit:10;stroke-dasharray:none"
   stroke-linecap="round"
   id="path3" />
	<path
   d="m 70.188,53.183 h -3.371 c -0.819,0 -1.483,-0.664 -1.483,-1.484 0,-0.82 0.664,-1.484 1.483,-1.484 h 3.371 c 0.819,0 1.484,0.664 1.484,1.484 0,0.82 -0.665,1.484 -1.484,1.484 z"
   style="opacity:1;fill:#ffffff;fill-rule:nonzero;stroke:none;stroke-width:1;stroke-linecap:butt;stroke-linejoin:miter;stroke-miterlimit:10;stroke-dasharray:none"
   stroke-linecap="round"
   id="path4" />
	<path
   d="m 60.298,53.183 h -3.371 c -0.819,0 -1.484,-0.664 -1.484,-1.484 0,-0.82 0.664,-1.484 1.484,-1.484 h 3.371 c 0.819,0 1.484,0.664 1.484,1.484 0,0.82 -0.665,1.484 -1.484,1.484 z"
   style="opacity:1;fill:#ffffff;fill-rule:nonzero;stroke:none;stroke-width:1;stroke-linecap:butt;stroke-linejoin:miter;stroke-miterlimit:10;stroke-dasharray:none"
   stroke-linecap="round"
   id="path5" />
	<path
   d="m 50.408,53.183 h -3.371 c -0.819,0 -1.484,-0.664 -1.484,-1.484 0,-0.82 0.664,-1.484 1.484,-1.484 h 3.371 c 0.819,0 1.484,0.664 1.484,1.484 0,0.82 -0.665,1.484 -1.484,1.484 z"
   style="opacity:1;fill:#ffffff;fill-rule:nonzero;stroke:none;stroke-width:1;stroke-linecap:butt;stroke-linejoin:miter;stroke-miterlimit:10;stroke-dasharray:none"
   stroke-linecap="round"
   id="path6" />
</g></svg>
