<?xml version="1.0" encoding="UTF-8" standalone="no"?>
<svg
   viewBox="0 0 252.8964 179.30048"
   fill="#ffffff"
   version="1.1"
   id="svg1"
   xml:space="preserve"
   width="252.89639"
   height="179.30048"
   xmlns="http://www.w3.org/2000/svg"
   xmlns:svg="http://www.w3.org/2000/svg"><defs
     id="defs1" /><g
     style="opacity:1;fill:#ffffff;fill-rule:nonzero;stroke:none;stroke-width:0;stroke-linecap:butt;stroke-linejoin:miter;stroke-miterlimit:10;stroke-dasharray:none"
     transform="matrix(2.81,0,0,2.81,0,-36.80257)"
     id="g9">
	<path
   d="M 42.092,13.097 H 34.754 28.326 21.547 14.208 7.778 1 c -0.552,0 -1,0.448 -1,1 V 34.643 55.19 75.736 c 0,0.553 0.448,1 1,1 h 20.546 20.546 c 0.552,0 1,-0.447 1,-1 V 55.19 34.643 14.097 c 0,-0.552 -0.448,-1 -1,-1 z M 29.325,56.19 h 4.428 v 6.52 h -4.428 z m 5.428,-2 H 28.325 22.546 V 35.643 h 4.779 v 7.52 c 0,0.552 0.448,1 1,1 h 6.428 c 0.552,0 1,-0.448 1,-1 v -7.52 h 5.338 V 54.19 Z m -25.975,2 h 4.429 v 6.52 H 8.778 Z m 5.429,-2 H 7.778 2 V 35.643 h 4.779 v 7.52 c 0,0.552 0.448,1 1,1 h 6.429 c 0.552,0 1,-0.448 1,-1 v -7.52 h 5.338 V 54.19 Z M 8.778,35.643 h 4.429 v 6.52 H 8.778 Z m 20.547,0 h 4.428 v 6.52 h -4.428 z m 11.767,-2 H 34.754 28.326 22.547 V 15.097 h 4.779 v 7.52 c 0,0.552 0.448,1 1,1 h 6.428 c 0.552,0 1,-0.448 1,-1 v -7.52 h 5.338 z M 33.753,15.097 v 6.52 h -4.428 v -6.52 z m -20.546,0 v 6.52 H 8.778 v -6.52 z M 2,15.097 h 4.779 v 7.52 c 0,0.552 0.448,1 1,1 h 6.429 c 0.552,0 1,-0.448 1,-1 v -7.52 h 5.338 V 33.643 H 14.208 7.778 2 Z M 2,56.19 h 4.779 v 7.52 c 0,0.553 0.448,1 1,1 h 6.429 c 0.552,0 1,-0.447 1,-1 v -7.52 h 5.338 V 74.736 H 2 Z M 41.092,74.736 H 22.546 V 56.19 h 4.779 v 7.52 c 0,0.553 0.448,1 1,1 h 6.428 c 0.552,0 1,-0.447 1,-1 v -7.52 h 5.338 v 18.546 z"
   style="opacity:1;fill:#ffffff;fill-rule:nonzero;stroke:none;stroke-width:1;stroke-linecap:butt;stroke-linejoin:miter;stroke-miterlimit:10;stroke-dasharray:none"
   stroke-linecap="round"
   id="path1-5" />
	<path
   d="m 63.267,38.297 c -0.132,0 -0.264,-0.026 -0.388,-0.078 l -5.25,-2.208 c -0.509,-0.214 -0.748,-0.8 -0.534,-1.31 l 2.208,-5.25 c 0.215,-0.51 0.803,-0.746 1.31,-0.534 l 5.25,2.208 c 0.244,0.103 0.438,0.298 0.538,0.544 0.101,0.246 0.099,0.521 -0.004,0.766 l -2.208,5.251 c -0.103,0.245 -0.299,0.438 -0.544,0.538 -0.121,0.048 -0.25,0.073 -0.378,0.073 z m -3.941,-3.742 3.406,1.433 1.433,-3.407 -3.406,-1.432 z"
   style="opacity:1;fill:#ffffff;fill-rule:nonzero;stroke:none;stroke-width:1;stroke-linecap:butt;stroke-linejoin:miter;stroke-miterlimit:10;stroke-dasharray:none"
   stroke-linecap="round"
   id="path2-1" />
	<path
   d="m 59.347,47.617 c -0.13,0 -0.261,-0.025 -0.388,-0.078 l -5.25,-2.208 c -0.244,-0.103 -0.438,-0.298 -0.538,-0.544 -0.101,-0.246 -0.099,-0.521 0.004,-0.766 l 2.208,-5.25 c 0.215,-0.51 0.801,-0.747 1.31,-0.534 l 5.25,2.208 c 0.244,0.103 0.438,0.299 0.538,0.544 0.101,0.246 0.099,0.521 -0.004,0.765 l -2.208,5.25 c -0.161,0.384 -0.533,0.613 -0.922,0.613 z m -3.941,-3.742 3.406,1.432 1.433,-3.406 -3.406,-1.433 z"
   style="opacity:1;fill:#ffffff;fill-rule:nonzero;stroke:none;stroke-width:1;stroke-linecap:butt;stroke-linejoin:miter;stroke-miterlimit:10;stroke-dasharray:none"
   stroke-linecap="round"
   id="path3-7" />
	<path
   d="m 55.427,56.939 c -0.13,0 -0.261,-0.025 -0.388,-0.078 l -5.25,-2.208 c -0.509,-0.214 -0.748,-0.801 -0.534,-1.31 l 2.208,-5.25 c 0.215,-0.511 0.803,-0.745 1.31,-0.534 l 5.25,2.208 c 0.509,0.214 0.748,0.801 0.534,1.31 l -2.208,5.25 c -0.161,0.382 -0.532,0.612 -0.922,0.612 z m -3.941,-3.743 3.406,1.433 1.433,-3.406 -3.406,-1.433 z"
   style="opacity:1;fill:#ffffff;fill-rule:nonzero;stroke:none;stroke-width:1;stroke-linecap:butt;stroke-linejoin:miter;stroke-miterlimit:10;stroke-dasharray:none"
   stroke-linecap="round"
   id="path4-1" />
	<path
   d="m 76.09,40.601 c -0.13,0 -0.261,-0.025 -0.388,-0.079 L 67.733,37.17 c -0.509,-0.214 -0.748,-0.8 -0.534,-1.31 0.215,-0.51 0.801,-0.748 1.31,-0.534 l 7.969,3.352 c 0.509,0.214 0.748,0.8 0.534,1.31 -0.161,0.382 -0.532,0.613 -0.922,0.613 z"
   style="opacity:1;fill:#ffffff;fill-rule:nonzero;stroke:none;stroke-width:1;stroke-linecap:butt;stroke-linejoin:miter;stroke-miterlimit:10;stroke-dasharray:none"
   stroke-linecap="round"
   id="path5-1" />
	<path
   d="m 72.17,49.921 c -0.13,0 -0.261,-0.025 -0.388,-0.078 l -7.969,-3.352 c -0.509,-0.214 -0.748,-0.8 -0.534,-1.309 0.215,-0.51 0.803,-0.747 1.31,-0.534 l 7.969,3.351 c 0.509,0.214 0.748,0.801 0.534,1.31 -0.161,0.382 -0.532,0.612 -0.922,0.612 z"
   style="opacity:1;fill:#ffffff;fill-rule:nonzero;stroke:none;stroke-width:1;stroke-linecap:butt;stroke-linejoin:miter;stroke-miterlimit:10;stroke-dasharray:none"
   stroke-linecap="round"
   id="path6-5" />
	<path
   d="m 68.25,59.242 c -0.13,0 -0.261,-0.025 -0.388,-0.078 l -7.969,-3.352 c -0.509,-0.214 -0.748,-0.801 -0.534,-1.31 0.215,-0.511 0.801,-0.745 1.31,-0.534 l 7.969,3.352 c 0.509,0.214 0.748,0.801 0.534,1.31 -0.161,0.383 -0.532,0.612 -0.922,0.612 z"
   style="opacity:1;fill:#ffffff;fill-rule:nonzero;stroke:none;stroke-width:1;stroke-linecap:butt;stroke-linejoin:miter;stroke-miterlimit:10;stroke-dasharray:none"
   stroke-linecap="round"
   id="path7" />
	<path
   d="m 68.724,76.905 c -0.511,0 -1.021,-0.102 -1.505,-0.306 L 46.66,67.953 c -0.509,-0.214 -0.748,-0.801 -0.534,-1.31 0.215,-0.511 0.802,-0.745 1.31,-0.534 l 20.559,8.646 c 0.958,0.401 2.062,-0.049 2.464,-1.005 L 87.853,32.388 c 0.402,-0.957 -0.049,-2.062 -1.005,-2.464 l -8.205,-3.45 c -0.244,-0.103 -0.438,-0.298 -0.538,-0.544 -0.101,-0.246 -0.099,-0.521 0.004,-0.766 0.352,-0.836 0.356,-1.76 0.014,-2.6 -0.343,-0.84 -0.991,-1.496 -1.828,-1.848 L 71.83,18.838 c -0.836,-0.351 -1.758,-0.357 -2.6,-0.014 -0.84,0.343 -1.496,0.992 -1.848,1.829 -0.215,0.51 -0.803,0.748 -1.31,0.534 l -8.205,-3.45 c -0.463,-0.195 -0.976,-0.198 -1.44,-0.008 -0.466,0.19 -0.829,0.55 -1.024,1.013 L 47.97,36.416 c -0.215,0.51 -0.802,0.748 -1.31,0.534 -0.509,-0.214 -0.748,-0.8 -0.534,-1.31 l 7.432,-17.675 c 0.402,-0.956 1.152,-1.698 2.113,-2.09 0.959,-0.391 2.017,-0.385 2.971,0.016 l 7.368,3.098 c 0.593,-0.901 1.443,-1.602 2.464,-2.019 1.336,-0.545 2.801,-0.538 4.13,0.022 l 4.465,1.878 c 1.329,0.559 2.36,1.602 2.905,2.936 0.416,1.021 0.51,2.119 0.28,3.173 l 7.368,3.098 c 1.973,0.83 2.903,3.111 2.073,5.084 L 72.302,74.526 c -0.402,0.956 -1.152,1.697 -2.112,2.089 -0.474,0.193 -0.97,0.29 -1.466,0.29 z"
   style="opacity:1;fill:#ffffff;fill-rule:nonzero;stroke:none;stroke-width:1;stroke-linecap:butt;stroke-linejoin:miter;stroke-miterlimit:10;stroke-dasharray:none"
   stroke-linecap="round"
   id="path8" />
	<path
   d="m 66.996,69.855 c -0.32,0 -0.64,-0.064 -0.944,-0.192 L 48.007,62.075 c -0.509,-0.214 -0.748,-0.801 -0.534,-1.31 0.215,-0.511 0.801,-0.745 1.31,-0.534 l 18.046,7.588 c 0.145,0.061 0.27,0.03 0.332,0.002 0.062,-0.024 0.175,-0.089 0.235,-0.232 L 81.361,34.382 c 0.061,-0.144 0.027,-0.27 0.002,-0.332 -0.025,-0.062 -0.09,-0.175 -0.233,-0.236 L 59.395,24.674 C 59.25,24.612 59.124,24.647 59.063,24.672 59,24.697 58.887,24.761 58.827,24.905 l -9.51,22.615 c -0.215,0.51 -0.801,0.745 -1.31,0.534 -0.509,-0.214 -0.748,-0.801 -0.534,-1.31 l 9.51,-22.614 c 0.252,-0.599 0.722,-1.064 1.324,-1.31 0.601,-0.246 1.263,-0.244 1.863,0.01 l 21.734,9.14 c 0.599,0.251 1.064,0.722 1.311,1.324 0.245,0.602 0.242,1.263 -0.01,1.862 L 69.24,68.363 c -0.252,0.6 -0.722,1.064 -1.324,1.311 -0.298,0.12 -0.608,0.181 -0.92,0.181 z"
   style="opacity:1;fill:#ffffff;fill-rule:nonzero;stroke:none;stroke-width:1;stroke-linecap:butt;stroke-linejoin:miter;stroke-miterlimit:10;stroke-dasharray:none"
   stroke-linecap="round"
   id="path9" />
</g></svg>
